<?xml version="1.0" encoding="UTF-8" standalone="no"?>
<!DOCTYPE svg PUBLIC "-//W3C//DTD SVG 1.1//EN" "http://www.w3.org/Graphics/SVG/1.1/DTD/svg11.dtd">
<svg width="100%" height="100%" viewBox="0 0 1080 1080" version="1.1" xmlns="http://www.w3.org/2000/svg" xmlns:xlink="http://www.w3.org/1999/xlink" xml:space="preserve" xmlns:serif="http://www.serif.com/" style="fill-rule:evenodd;clip-rule:evenodd;stroke-linejoin:round;stroke-miterlimit:2;">
    <g id="Logo" transform="matrix(0.250803,0,0,0.250803,58.459,58.4585)">
        <path d="M1048.38,1074.88L846.737,1074.88L846.737,1005.07L1312.97,1005.07L1312.97,1074.88L1106.55,1074.88L1797.9,2675.52L2226.73,1650.81L1982.4,1074.88L1779.2,1074.88L1779.2,1005.07L2245.43,1005.07L2245.43,1074.88L2052.21,1074.88L2727.87,2675.52L3401.04,1074.88L3227.76,1074.88L3227.76,1005.07L3693.99,1005.07L3693.99,1074.88L3470.85,1074.88L2727.87,2830.1L2261.64,1728.1L1828.54,2765.13L2015.92,2765.13L2015.92,2834.93L1559.66,2834.93L1559.66,2765.13L1774.1,2765.13L1470.51,2067.02L701.838,2067.02L404.054,2765.13L602.265,2765.13L602.265,2834.93L146.006,2834.93L146.006,2765.13L334.244,2765.13L1048.38,1074.88ZM1440.48,1997.21L1079.72,1164.48L731.874,1997.21L1440.48,1997.21Z" style="fill:white;fill-rule:nonzero;"/>
    </g>
</svg>
