<?xml version="1.0" encoding="UTF-8" standalone="no"?>
<!DOCTYPE svg PUBLIC "-//W3C//DTD SVG 1.1//EN" "http://www.w3.org/Graphics/SVG/1.1/DTD/svg11.dtd">
<svg width="100%" height="100%" viewBox="0 0 1080 1080" version="1.1" xmlns="http://www.w3.org/2000/svg" xmlns:xlink="http://www.w3.org/1999/xlink" xml:space="preserve" xmlns:serif="http://www.serif.com/" style="fill-rule:evenodd;clip-rule:evenodd;stroke-linejoin:round;stroke-miterlimit:2;">
    <g transform="matrix(1.91433,0,0,1.67619,-462.29,-365.141)">
        <path d="M305.05,843.75C305.05,851.173 310.319,857.191 316.819,857.191L730.325,857.191C736.825,857.191 742.094,851.173 742.094,843.75L742.094,236.25C742.094,228.827 736.825,222.809 730.325,222.809L566.646,222.809C560.147,222.809 554.877,228.827 554.877,236.25L554.877,374.882C554.877,374.882 440.73,374.882 440.73,374.882C434.23,374.882 428.961,380.9 428.961,388.323L428.961,526.559C398.031,526.559 316.819,526.559 316.819,526.559C310.319,526.559 305.05,532.577 305.05,540L305.05,843.75Z" style="fill:rgb(88,96,117);"/>
    </g>
</svg>
