<?xml version="1.0" encoding="UTF-8" standalone="no"?>
<!DOCTYPE svg PUBLIC "-//W3C//DTD SVG 1.1//EN" "http://www.w3.org/Graphics/SVG/1.1/DTD/svg11.dtd">
<svg width="100%" height="100%" viewBox="0 0 1080 1080" version="1.1" xmlns="http://www.w3.org/2000/svg" xmlns:xlink="http://www.w3.org/1999/xlink" xml:space="preserve" xmlns:serif="http://www.serif.com/" style="fill-rule:evenodd;clip-rule:evenodd;stroke-linecap:round;stroke-linejoin:round;stroke-miterlimit:1.5;">
    <g transform="matrix(1,0,0,1,0,36.3659)">
        <g transform="matrix(1.295,0,0,1.75125,222.206,-386.75)">
            <path d="M74.79,359.543L349.25,359.543" style="fill:none;stroke:white;stroke-width:19.48px;"/>
        </g>
        <g transform="matrix(1,0,0,1.35231,0,-269.298)">
            <path d="M674.485,378.755L764.194,568.996" style="fill:none;stroke:white;stroke-width:25.23px;"/>
        </g>
        <g transform="matrix(0.69,0,0,0.933096,1.22821,-92.5907)">
            <path d="M74.79,359.543L349.25,359.543" style="fill:none;stroke:white;stroke-width:36.56px;"/>
        </g>
        <g transform="matrix(1.465,0,0,1.98114,162.834,-339.038)">
            <path d="M74.79,359.543L349.25,359.543" style="fill:none;stroke:white;stroke-width:17.22px;"/>
        </g>
        <g transform="matrix(1,0,0,1.35231,0,-269.298)">
            <path d="M674.485,475.159L763.685,567.757" style="fill:none;stroke:white;stroke-width:25.23px;"/>
        </g>
        <g transform="matrix(0.49,0,0,0.662633,16.1863,135.021)">
            <path d="M74.79,359.543L349.25,359.543" style="fill:none;stroke:white;stroke-width:51.48px;"/>
        </g>
        <g transform="matrix(0.64,0,0,0.86548,533.303,192.457)">
            <path d="M74.79,359.543L349.25,359.543" style="fill:none;stroke:white;stroke-width:39.41px;"/>
        </g>
        <g transform="matrix(0.88,0,0,1.19004,-12.982,75.7656)">
            <path d="M74.79,359.543L349.25,359.543" style="fill:none;stroke:white;stroke-width:28.67px;"/>
        </g>
        <g transform="matrix(0.565,0,0,0.764057,313.855,228.923)">
            <path d="M74.79,359.543L349.25,359.543" style="fill:none;stroke:white;stroke-width:44.65px;"/>
        </g>
        <g transform="matrix(0.72,0,0,0.973665,423.025,283.928)">
            <path d="M74.79,359.543L349.25,359.543" style="fill:none;stroke:white;stroke-width:35.04px;"/>
        </g>
        <g transform="matrix(1,0,0,1.35231,0,-269.298)">
            <path d="M674.485,667.967L762.313,576.366" style="fill:none;stroke:white;stroke-width:25.23px;"/>
        </g>
        <g transform="matrix(1.26,0,0,1.70391,-41.4023,21.3727)">
            <path d="M74.79,359.543L349.25,359.543" style="fill:none;stroke:white;stroke-width:20.02px;"/>
        </g>
        <g transform="matrix(1.1,0,0,1.48754,290.31,229.535)">
            <path d="M74.79,359.543L349.25,359.543" style="fill:none;stroke:white;stroke-width:22.93px;"/>
        </g>
        <g transform="matrix(1.00603,-0.0173334,-0.0128176,1.38915,5.72904,-285.761)">
            <path d="M674.485,764.371L761.744,578.011" style="fill:none;stroke:white;stroke-width:25.05px;"/>
        </g>
        <g transform="matrix(0.855,0,0,1.15623,-11.1122,348.658)">
            <path d="M74.79,359.543L349.25,359.543" style="fill:none;stroke:white;stroke-width:29.5px;"/>
        </g>
    </g>
    <g transform="matrix(1,0,0,1,8.96091,-43.9136)">
        <circle cx="891.995" cy="583.914" r="126.938" style="fill:none;stroke:white;stroke-width:30px;"/>
    </g>
</svg>
