<?xml version="1.0" encoding="UTF-8" standalone="no"?>
<!DOCTYPE svg PUBLIC "-//W3C//DTD SVG 1.1//EN" "http://www.w3.org/Graphics/SVG/1.1/DTD/svg11.dtd">
<svg width="100%" height="100%" viewBox="0 0 1080 1080" version="1.1" xmlns="http://www.w3.org/2000/svg" xmlns:xlink="http://www.w3.org/1999/xlink" xml:space="preserve" xmlns:serif="http://www.serif.com/" style="fill-rule:evenodd;clip-rule:evenodd;stroke-linecap:round;stroke-linejoin:round;stroke-miterlimit:1.5;">
    <g transform="matrix(1,0,0,1,20.9982,15.215)">
        <g transform="matrix(1.21503,0,0,1.21503,-109.445,33.8863)">
            <path d="M114.587,396.595C365.718,396.595 354.74,683.405 534.511,683.405C620.485,683.405 663.145,617.808 711.576,549.355C764.414,474.674 824.121,396.595 954.435,396.595" style="fill:none;stroke:white;stroke-width:24.69px;stroke-dasharray:123.45,49.38,49.38,49.38;"/>
        </g>
        <g transform="matrix(1.21503,0,0,1.21503,-109.445,33.8863)">
            <path d="M114.587,396.595C365.718,396.595 354.74,683.405 534.511,683.405C620.485,683.405 663.145,617.808 711.576,549.355" style="fill:none;stroke:white;stroke-width:24.69px;"/>
        </g>
        <g transform="matrix(1.21503,0,0,1.21503,-172.593,-39.7693)">
            <circle cx="578.424" cy="349.936" r="164.676" style="fill:none;stroke:white;stroke-width:24.69px;"/>
        </g>
        <g transform="matrix(-0.235105,0.724211,-0.73962,-0.240107,925.02,50.534)">
            <circle cx="578.424" cy="349.936" r="164.676" style="fill:none;stroke:white;stroke-width:25.99px;stroke-dasharray:155.93,77.97,25.99,51.98;"/>
        </g>
        <g transform="matrix(1.18138,0.0336469,0.0336469,1.18138,-134.561,-94.397)">
            <path d="M437.078,539.314L229.174,777.408" style="fill:none;stroke:white;stroke-width:24.69px;"/>
        </g>
    </g>
</svg>
