<?xml version="1.0" encoding="UTF-8" standalone="no"?>
<!DOCTYPE svg PUBLIC "-//W3C//DTD SVG 1.1//EN" "http://www.w3.org/Graphics/SVG/1.1/DTD/svg11.dtd">
<svg width="100%" height="100%" viewBox="0 0 1080 1080" version="1.1" xmlns="http://www.w3.org/2000/svg" xmlns:xlink="http://www.w3.org/1999/xlink" xml:space="preserve" xmlns:serif="http://www.serif.com/" style="fill-rule:evenodd;clip-rule:evenodd;stroke-linecap:round;stroke-linejoin:round;stroke-miterlimit:1.5;">
    <rect x="0" y="0" width="1080" height="1080" style="fill:white;"/>
    <g transform="matrix(0.834417,0,0,0.834417,-99.2881,83.1333)">
        <g transform="matrix(1,0,0,1,167.695,-1.09784)">
            <g transform="matrix(0.510328,0,0,0.510328,713.742,210.233)">
                <circle cx="622.071" cy="473.1" r="66.9" style="fill:rgb(194,194,194);stroke:black;stroke-width:7.34px;"/>
            </g>
            <g transform="matrix(0.510328,0,0,0.510328,713.742,419.832)">
                <circle cx="622.071" cy="473.1" r="66.9" style="fill:rgb(194,194,194);stroke:black;stroke-width:7.34px;"/>
            </g>
            <g transform="matrix(0.510328,0,0,0.510328,713.742,315.033)">
                <circle cx="622.071" cy="473.1" r="66.9" style="fill:rgb(194,194,194);stroke:black;stroke-width:7.34px;"/>
            </g>
            <g transform="matrix(0.510328,0,0,0.510328,877.046,315.033)">
                <circle cx="622.071" cy="473.1" r="66.9" style="fill:rgb(194,194,194);stroke:black;stroke-width:7.34px;"/>
            </g>
            <g transform="matrix(1.48174,0,0,1.48174,1006.42,406.307)">
                <text x="0px" y="0px" style="font-family:'ArialMT', 'Arial', sans-serif;font-size:12px;">Dense</text>
            </g>
        </g>
        <g transform="matrix(1,0,0,1,179.771,0)">
            <path d="M1054.4,451.794L1147.93,555.975L1053.78,662.849" style="fill:none;stroke:black;stroke-width:3.75px;"/>
        </g>
        <g transform="matrix(1.77143,0,0,1.77143,1329.97,505.693)">
            <text x="0px" y="0px" style="font-family:'ArialMT', 'Arial', sans-serif;font-size:12px;">Output</text>
        </g>
        <g transform="matrix(0.60725,0,0,0.60725,-12.6762,511.373)">
            <g transform="matrix(1,0,0,1,-49.4028,-21.9568)">
                <rect x="353.443" y="203.1" width="13.723" height="717.713"/>
            </g>
            <g transform="matrix(2.44008,0,0,2.44008,792.358,266.224)">
                <text x="0px" y="0px" style="font-family:'ArialMT', 'Arial', sans-serif;font-size:12px;">MaxPooling</text>
            </g>
            <g transform="matrix(2.44008,0,0,2.44008,1094.26,311.235)">
                <text x="0px" y="0px" style="font-family:'ArialMT', 'Arial', sans-serif;font-size:12px;">Dense</text>
            </g>
            <g transform="matrix(2.44008,0,0,2.44008,501.468,174.181)">
                <text x="0px" y="0px" style="font-family:'ArialMT', 'Arial', sans-serif;font-size:12px;">1D-Convolution</text>
            </g>
            <g transform="matrix(2.44008,0,0,2.44008,243.198,163.203)">
                <text x="0px" y="0px" style="font-family:'ArialMT', 'Arial', sans-serif;font-size:12px;">Global Input</text>
            </g>
            <g transform="matrix(0.840391,0,0,0.840391,38.4923,165.822)">
                <g transform="matrix(1,0,0,1,56.2643,266.226)">
                    <circle cx="622.071" cy="473.1" r="66.9" style="fill:rgb(206,206,206);fill-opacity:0.45;stroke:rgb(145,145,145);stroke-width:7.34px;"/>
                </g>
                <g transform="matrix(1,0,0,1,30.1906,292.3)">
                    <circle cx="622.071" cy="473.1" r="66.9" style="fill:rgb(213,213,213);stroke:rgb(59,59,59);stroke-width:7.34px;"/>
                </g>
                <g transform="matrix(1,0,0,1,4.1169,318.374)">
                    <circle cx="622.071" cy="473.1" r="66.9" style="fill:rgb(194,194,194);stroke:black;stroke-width:7.34px;"/>
                </g>
            </g>
            <g transform="matrix(0.840391,0,0,0.840391,38.4923,-11.2045)">
                <g transform="matrix(1,0,0,1,56.2643,266.226)">
                    <circle cx="622.071" cy="473.1" r="66.9" style="fill:rgb(206,206,206);fill-opacity:0.45;stroke:rgb(145,145,145);stroke-width:7.34px;"/>
                </g>
                <g transform="matrix(1,0,0,1,30.1906,292.3)">
                    <circle cx="622.071" cy="473.1" r="66.9" style="fill:rgb(213,213,213);stroke:rgb(59,59,59);stroke-width:7.34px;"/>
                </g>
                <g transform="matrix(1,0,0,1,4.1169,318.374)">
                    <circle cx="622.071" cy="473.1" r="66.9" style="fill:rgb(194,194,194);stroke:black;stroke-width:7.34px;"/>
                </g>
            </g>
            <g transform="matrix(0.840391,0,0,0.840391,40.7988,-188.231)">
                <g transform="matrix(1,0,0,1,56.2643,266.226)">
                    <circle cx="622.071" cy="473.1" r="66.9" style="fill:rgb(206,206,206);fill-opacity:0.45;stroke:rgb(145,145,145);stroke-width:7.34px;"/>
                </g>
                <g transform="matrix(1,0,0,1,30.1906,292.3)">
                    <circle cx="622.071" cy="473.1" r="66.9" style="fill:rgb(213,213,213);stroke:rgb(59,59,59);stroke-width:7.34px;"/>
                </g>
                <g transform="matrix(1,0,0,1,4.1169,318.374)">
                    <circle cx="622.071" cy="473.1" r="66.9" style="fill:rgb(194,194,194);stroke:black;stroke-width:7.34px;"/>
                </g>
            </g>
            <g transform="matrix(0.840391,0,0,0.840391,40.7988,-370.473)">
                <g transform="matrix(1,0,0,1,56.2643,266.226)">
                    <circle cx="622.071" cy="473.1" r="66.9" style="fill:rgb(206,206,206);fill-opacity:0.45;stroke:rgb(145,145,145);stroke-width:7.34px;"/>
                </g>
                <g transform="matrix(1,0,0,1,30.1906,292.3)">
                    <circle cx="622.071" cy="473.1" r="66.9" style="fill:rgb(213,213,213);stroke:rgb(59,59,59);stroke-width:7.34px;"/>
                </g>
                <g transform="matrix(1,0,0,1,4.1169,318.374)">
                    <circle cx="622.071" cy="473.1" r="66.9" style="fill:rgb(194,194,194);stroke:black;stroke-width:7.34px;"/>
                </g>
            </g>
            <g transform="matrix(0.840391,0,0,0.840391,310.867,65.3697)">
                <g transform="matrix(1,0,0,1,56.2643,266.226)">
                    <circle cx="622.071" cy="473.1" r="66.9" style="fill:rgb(206,206,206);fill-opacity:0.45;stroke:rgb(145,145,145);stroke-width:7.34px;"/>
                </g>
                <g transform="matrix(1,0,0,1,30.1906,292.3)">
                    <circle cx="622.071" cy="473.1" r="66.9" style="fill:rgb(213,213,213);stroke:rgb(59,59,59);stroke-width:7.34px;"/>
                </g>
                <g transform="matrix(1,0,0,1,4.1169,318.374)">
                    <circle cx="622.071" cy="473.1" r="66.9" style="fill:rgb(194,194,194);stroke:black;stroke-width:7.34px;"/>
                </g>
            </g>
            <g transform="matrix(0.840391,0,0,0.840391,617.605,-11.9582)">
                <circle cx="622.071" cy="473.1" r="66.9" style="fill:rgb(194,194,194);stroke:black;stroke-width:7.34px;"/>
            </g>
            <g transform="matrix(0.840391,0,0,0.840391,617.605,333.203)">
                <circle cx="622.071" cy="473.1" r="66.9" style="fill:rgb(194,194,194);stroke:black;stroke-width:7.34px;"/>
            </g>
            <g transform="matrix(0.840391,0,0,0.840391,617.605,160.622)">
                <circle cx="622.071" cy="473.1" r="66.9" style="fill:rgb(194,194,194);stroke:black;stroke-width:7.34px;"/>
            </g>
            <g>
                <g transform="matrix(1,0,0,1,42.7191,-41.8198)">
                    <path d="M624.677,291.15L737.505,433.086L624.79,479.227" style="fill:none;stroke:rgb(145,145,145);stroke-width:6.17px;"/>
                </g>
                <g transform="matrix(1,0,0,1,20.5052,-21.5844)">
                    <path d="M624.677,291.15L759.629,411.951L624.79,479.227" style="fill:none;stroke:rgb(59,59,59);stroke-width:6.17px;"/>
                </g>
                <path d="M624.677,291.15L779.775,390.367L624.79,479.227" style="fill:none;stroke:black;stroke-width:6.17px;"/>
            </g>
            <g transform="matrix(1.01156,0,0,1,-10.821,357.896)">
                <g transform="matrix(1,0,0,1,42.7191,-41.8198)">
                    <path d="M624.677,291.15L739.639,419.775L624.79,479.227" style="fill:none;stroke:rgb(145,145,145);stroke-width:6.13px;"/>
                </g>
                <g transform="matrix(1,0,0,1,20.5052,-21.5844)">
                    <path d="M624.677,291.15L761.763,398.641L624.79,479.227" style="fill:none;stroke:rgb(59,59,59);stroke-width:6.13px;"/>
                </g>
                <path d="M624.677,291.15L781.908,377.056L624.79,479.227" style="fill:none;stroke:black;stroke-width:6.13px;"/>
            </g>
            <g transform="matrix(0.840391,0,0,0.840391,310.867,-276.058)">
                <g transform="matrix(1,0,0,1,56.2643,266.226)">
                    <circle cx="622.071" cy="473.1" r="66.9" style="fill:rgb(206,206,206);fill-opacity:0.45;stroke:rgb(145,145,145);stroke-width:7.34px;"/>
                </g>
                <g transform="matrix(1,0,0,1,30.1906,292.3)">
                    <circle cx="622.071" cy="473.1" r="66.9" style="fill:rgb(213,213,213);stroke:rgb(59,59,59);stroke-width:7.34px;"/>
                </g>
                <g transform="matrix(1,0,0,1,4.1169,318.374)">
                    <circle cx="622.071" cy="473.1" r="66.9" style="fill:rgb(194,194,194);stroke:black;stroke-width:7.34px;"/>
                </g>
            </g>
            <g>
                <g transform="matrix(1,0,0,1,42.7191,-47.7779)">
                    <path d="M894.729,389.216L1041.43,783.918L895.291,734.903" style="fill:none;stroke:rgb(145,145,145);stroke-width:6.17px;"/>
                </g>
                <g transform="matrix(1,0,0,1,42.7191,-47.7779)">
                    <path d="M894.729,389.216L1041.08,434.97L895.291,734.903" style="fill:none;stroke:rgb(145,145,145);stroke-width:6.17px;"/>
                </g>
                <g transform="matrix(1,0,0,1,42.7191,-47.7779)">
                    <path d="M894.729,389.216L1041.29,606.311L895.291,734.903" style="fill:none;stroke:rgb(145,145,145);stroke-width:6.17px;"/>
                </g>
                <g transform="matrix(1,0,0,1,21.3596,-25.8563)">
                    <path d="M894.729,389.216L1062.8,762.221L895.291,734.903" style="fill:none;stroke:rgb(59,59,59);stroke-width:6.17px;"/>
                </g>
                <g transform="matrix(1,0,0,1,21.3596,-25.8563)">
                    <path d="M894.729,389.216L1062.32,412.951L895.291,734.903" style="fill:none;stroke:rgb(59,59,59);stroke-width:6.17px;"/>
                </g>
                <g transform="matrix(1,0,0,1,21.3596,-25.8563)">
                    <path d="M894.729,389.216L1062.55,584.086L895.291,734.903" style="fill:none;stroke:rgb(59,59,59);stroke-width:6.17px;"/>
                </g>
                <path d="M894.729,389.216L1084.43,736.431L895.291,734.903" style="fill:none;stroke:black;stroke-width:6.17px;"/>
                <path d="M894.729,389.216L1084.1,386.967L895.291,734.903" style="fill:none;stroke:black;stroke-width:6.17px;"/>
                <path d="M894.729,389.216L1084.14,558.472L895.291,734.903" style="fill:none;stroke:black;stroke-width:6.17px;"/>
            </g>
            <g transform="matrix(1.97355,0,0,1.97355,216.825,-1006.18)">
                <g>
                    <path d="M71.887,760.046L143.792,795.999L71.887,831.951C89.863,813.975 89.863,778.022 71.887,760.046Z"/>
                    <path d="M62.905,795.999L86.268,795.999" style="fill:none;stroke:black;stroke-width:23.97px;stroke-linecap:butt;stroke-linejoin:miter;"/>
                </g>
            </g>
        </g>
        <g transform="matrix(0.60725,0,0,0.60725,-12.6762,-48.5253)">
            <g transform="matrix(1,0,0,1,-49.4028,-21.9568)">
                <rect x="353.443" y="203.1" width="13.723" height="717.713"/>
            </g>
            <g transform="matrix(2.44008,0,0,2.44008,792.358,266.224)">
                <text x="0px" y="0px" style="font-family:'ArialMT', 'Arial', sans-serif;font-size:12px;">MaxPooling</text>
            </g>
            <g transform="matrix(2.44008,0,0,2.44008,1094.26,311.235)">
                <text x="0px" y="0px" style="font-family:'ArialMT', 'Arial', sans-serif;font-size:12px;">Dense</text>
            </g>
            <g transform="matrix(2.44008,0,0,2.44008,1392.56,311.235)">
                <text x="0px" y="0px" style="font-family:'ArialMT', 'Arial', sans-serif;font-size:12px;">Dense</text>
            </g>
            <g transform="matrix(2.44008,0,0,2.44008,1392.56,1233.26)">
                <text x="0px" y="0px" style="font-family:'ArialMT', 'Arial', sans-serif;font-size:12px;">Dense</text>
            </g>
            <g transform="matrix(2.44008,0,0,2.44008,1691.4,539.751)">
                <text x="0px" y="0px" style="font-family:'ArialMT', 'Arial', sans-serif;font-size:12px;">Concatenate</text>
            </g>
            <g transform="matrix(2.44008,0,0,2.44008,501.468,174.181)">
                <text x="0px" y="0px" style="font-family:'ArialMT', 'Arial', sans-serif;font-size:12px;">1D-Convolution</text>
            </g>
            <g transform="matrix(2.44008,0,0,2.44008,244.648,163.203)">
                <text x="0px" y="0px" style="font-family:'ArialMT', 'Arial', sans-serif;font-size:12px;">Local Input</text>
            </g>
            <g transform="matrix(0.840391,0,0,0.840391,38.4923,165.822)">
                <g transform="matrix(1,0,0,1,56.2643,266.226)">
                    <circle cx="622.071" cy="473.1" r="66.9" style="fill:rgb(206,206,206);fill-opacity:0.45;stroke:rgb(145,145,145);stroke-width:7.34px;"/>
                </g>
                <g transform="matrix(1,0,0,1,30.1906,292.3)">
                    <circle cx="622.071" cy="473.1" r="66.9" style="fill:rgb(213,213,213);stroke:rgb(59,59,59);stroke-width:7.34px;"/>
                </g>
                <g transform="matrix(1,0,0,1,4.1169,318.374)">
                    <circle cx="622.071" cy="473.1" r="66.9" style="fill:rgb(194,194,194);stroke:black;stroke-width:7.34px;"/>
                </g>
            </g>
            <g transform="matrix(0.840391,0,0,0.840391,38.4923,-11.2045)">
                <g transform="matrix(1,0,0,1,56.2643,266.226)">
                    <circle cx="622.071" cy="473.1" r="66.9" style="fill:rgb(206,206,206);fill-opacity:0.45;stroke:rgb(145,145,145);stroke-width:7.34px;"/>
                </g>
                <g transform="matrix(1,0,0,1,30.1906,292.3)">
                    <circle cx="622.071" cy="473.1" r="66.9" style="fill:rgb(213,213,213);stroke:rgb(59,59,59);stroke-width:7.34px;"/>
                </g>
                <g transform="matrix(1,0,0,1,4.1169,318.374)">
                    <circle cx="622.071" cy="473.1" r="66.9" style="fill:rgb(194,194,194);stroke:black;stroke-width:7.34px;"/>
                </g>
            </g>
            <g transform="matrix(0.840391,0,0,0.840391,40.7988,-188.231)">
                <g transform="matrix(1,0,0,1,56.2643,266.226)">
                    <circle cx="622.071" cy="473.1" r="66.9" style="fill:rgb(206,206,206);fill-opacity:0.45;stroke:rgb(145,145,145);stroke-width:7.34px;"/>
                </g>
                <g transform="matrix(1,0,0,1,30.1906,292.3)">
                    <circle cx="622.071" cy="473.1" r="66.9" style="fill:rgb(213,213,213);stroke:rgb(59,59,59);stroke-width:7.34px;"/>
                </g>
                <g transform="matrix(1,0,0,1,4.1169,318.374)">
                    <circle cx="622.071" cy="473.1" r="66.9" style="fill:rgb(194,194,194);stroke:black;stroke-width:7.34px;"/>
                </g>
            </g>
            <g transform="matrix(0.840391,0,0,0.840391,40.7988,-370.473)">
                <g transform="matrix(1,0,0,1,56.2643,266.226)">
                    <circle cx="622.071" cy="473.1" r="66.9" style="fill:rgb(206,206,206);fill-opacity:0.45;stroke:rgb(145,145,145);stroke-width:7.34px;"/>
                </g>
                <g transform="matrix(1,0,0,1,30.1906,292.3)">
                    <circle cx="622.071" cy="473.1" r="66.9" style="fill:rgb(213,213,213);stroke:rgb(59,59,59);stroke-width:7.34px;"/>
                </g>
                <g transform="matrix(1,0,0,1,4.1169,318.374)">
                    <circle cx="622.071" cy="473.1" r="66.9" style="fill:rgb(194,194,194);stroke:black;stroke-width:7.34px;"/>
                </g>
            </g>
            <g transform="matrix(0.840391,0,0,0.840391,310.867,65.3697)">
                <g transform="matrix(1,0,0,1,56.2643,266.226)">
                    <circle cx="622.071" cy="473.1" r="66.9" style="fill:rgb(206,206,206);fill-opacity:0.45;stroke:rgb(145,145,145);stroke-width:7.34px;"/>
                </g>
                <g transform="matrix(1,0,0,1,30.1906,292.3)">
                    <circle cx="622.071" cy="473.1" r="66.9" style="fill:rgb(213,213,213);stroke:rgb(59,59,59);stroke-width:7.34px;"/>
                </g>
                <g transform="matrix(1,0,0,1,4.1169,318.374)">
                    <circle cx="622.071" cy="473.1" r="66.9" style="fill:rgb(194,194,194);stroke:black;stroke-width:7.34px;"/>
                </g>
            </g>
            <g transform="matrix(0.840391,0,0,0.840391,617.605,-11.9582)">
                <circle cx="622.071" cy="473.1" r="66.9" style="fill:rgb(194,194,194);stroke:black;stroke-width:7.34px;"/>
            </g>
            <g transform="matrix(0.840391,0,0,0.840391,617.605,333.203)">
                <circle cx="622.071" cy="473.1" r="66.9" style="fill:rgb(194,194,194);stroke:black;stroke-width:7.34px;"/>
            </g>
            <g transform="matrix(0.840391,0,0,0.840391,617.605,160.622)">
                <circle cx="622.071" cy="473.1" r="66.9" style="fill:rgb(194,194,194);stroke:black;stroke-width:7.34px;"/>
            </g>
            <g transform="matrix(0.840391,0,0,0.840391,911.387,-11.9582)">
                <circle cx="622.071" cy="473.1" r="66.9" style="fill:rgb(194,194,194);stroke:black;stroke-width:7.34px;"/>
            </g>
            <g transform="matrix(0.840391,0,0,0.840391,911.387,333.203)">
                <circle cx="622.071" cy="473.1" r="66.9" style="fill:rgb(194,194,194);stroke:black;stroke-width:7.34px;"/>
            </g>
            <g transform="matrix(0.840391,0,0,0.840391,911.387,160.622)">
                <circle cx="622.071" cy="473.1" r="66.9" style="fill:rgb(194,194,194);stroke:black;stroke-width:7.34px;"/>
            </g>
            <g transform="matrix(0.936848,0,0,1.01895,360.201,-11.2815)">
                <path d="M894.729,389.216L1084.1,386.967L895.291,734.903" style="fill:none;stroke:black;stroke-width:6.3px;"/>
            </g>
            <g transform="matrix(0.936848,0,0,1.01895,360.201,-11.2815)">
                <path d="M894.729,389.216L1084.1,557.36L895.291,734.903" style="fill:none;stroke:black;stroke-width:6.3px;"/>
            </g>
            <g transform="matrix(0.936848,0,0,1.01895,360.201,-11.2815)">
                <path d="M894.729,389.216L1084.1,733.406L895.291,734.903" style="fill:none;stroke:black;stroke-width:6.3px;"/>
            </g>
            <g transform="matrix(0.936848,0,0,0.492894,360.201,193.466)">
                <path d="M1083.33,384.942L896.029,738.414L1083.66,738.404" style="fill:none;stroke:black;stroke-width:8.24px;"/>
            </g>
            <g transform="matrix(0.936848,0,0,-0.492894,360.201,922.001)">
                <path d="M1083.33,384.942L896.029,738.414L1083.66,738.404" style="fill:none;stroke:black;stroke-width:8.24px;"/>
            </g>
            <g transform="matrix(0.840391,0,0,0.840391,911.387,907.804)">
                <circle cx="622.071" cy="473.1" r="66.9" style="fill:rgb(194,194,194);stroke:black;stroke-width:7.34px;"/>
            </g>
            <g transform="matrix(0.840391,0,0,0.840391,911.387,1252.96)">
                <circle cx="622.071" cy="473.1" r="66.9" style="fill:rgb(194,194,194);stroke:black;stroke-width:7.34px;"/>
            </g>
            <g transform="matrix(0.840391,0,0,0.840391,911.387,1080.38)">
                <circle cx="622.071" cy="473.1" r="66.9" style="fill:rgb(194,194,194);stroke:black;stroke-width:7.34px;"/>
            </g>
            <g transform="matrix(0.936848,0,0,1.01895,360.201,908.481)">
                <path d="M894.729,389.216L1084.1,386.967L895.291,734.903" style="fill:none;stroke:black;stroke-width:6.3px;"/>
            </g>
            <g transform="matrix(0.936848,0,0,1.01895,360.201,908.481)">
                <path d="M894.729,389.216L1084.1,557.36L895.291,734.903" style="fill:none;stroke:black;stroke-width:6.3px;"/>
            </g>
            <g transform="matrix(0.936848,0,0,1.01895,360.201,908.481)">
                <path d="M894.729,389.216L1084.1,733.406L895.291,734.903" style="fill:none;stroke:black;stroke-width:6.3px;"/>
            </g>
            <g transform="matrix(0.936848,0,0,0.492894,360.201,1113.23)">
                <path d="M1083.33,384.942L896.029,738.414L1083.66,738.404" style="fill:none;stroke:black;stroke-width:8.24px;"/>
            </g>
            <g transform="matrix(0.936848,0,0,-0.492894,360.201,1841.76)">
                <path d="M1083.33,384.942L896.029,738.414L1083.66,738.404" style="fill:none;stroke:black;stroke-width:8.24px;"/>
            </g>
            <g>
                <g transform="matrix(1,0,0,1,42.7191,-41.8198)">
                    <path d="M624.677,291.15L737.505,433.086L624.79,479.227" style="fill:none;stroke:rgb(145,145,145);stroke-width:6.17px;"/>
                </g>
                <g transform="matrix(1,0,0,1,20.5052,-21.5844)">
                    <path d="M624.677,291.15L759.629,411.951L624.79,479.227" style="fill:none;stroke:rgb(59,59,59);stroke-width:6.17px;"/>
                </g>
                <path d="M624.677,291.15L779.775,390.367L624.79,479.227" style="fill:none;stroke:black;stroke-width:6.17px;"/>
            </g>
            <g transform="matrix(1.01156,0,0,1,-10.821,357.896)">
                <g transform="matrix(1,0,0,1,42.7191,-41.8198)">
                    <path d="M624.677,291.15L739.639,419.775L624.79,479.227" style="fill:none;stroke:rgb(145,145,145);stroke-width:6.13px;"/>
                </g>
                <g transform="matrix(1,0,0,1,20.5052,-21.5844)">
                    <path d="M624.677,291.15L761.763,398.641L624.79,479.227" style="fill:none;stroke:rgb(59,59,59);stroke-width:6.13px;"/>
                </g>
                <path d="M624.677,291.15L781.908,377.056L624.79,479.227" style="fill:none;stroke:black;stroke-width:6.13px;"/>
            </g>
            <g transform="matrix(0.840391,0,0,0.840391,310.867,-276.058)">
                <g transform="matrix(1,0,0,1,56.2643,266.226)">
                    <circle cx="622.071" cy="473.1" r="66.9" style="fill:rgb(206,206,206);fill-opacity:0.45;stroke:rgb(145,145,145);stroke-width:7.34px;"/>
                </g>
                <g transform="matrix(1,0,0,1,30.1906,292.3)">
                    <circle cx="622.071" cy="473.1" r="66.9" style="fill:rgb(213,213,213);stroke:rgb(59,59,59);stroke-width:7.34px;"/>
                </g>
                <g transform="matrix(1,0,0,1,4.1169,318.374)">
                    <circle cx="622.071" cy="473.1" r="66.9" style="fill:rgb(194,194,194);stroke:black;stroke-width:7.34px;"/>
                </g>
            </g>
            <g>
                <g transform="matrix(1,0,0,1,42.7191,-47.7779)">
                    <path d="M894.729,389.216L1041.43,783.918L895.291,734.903" style="fill:none;stroke:rgb(145,145,145);stroke-width:6.17px;"/>
                </g>
                <g transform="matrix(1,0,0,1,42.7191,-47.7779)">
                    <path d="M894.729,389.216L1041.08,434.97L895.291,734.903" style="fill:none;stroke:rgb(145,145,145);stroke-width:6.17px;"/>
                </g>
                <g transform="matrix(1,0,0,1,42.7191,-47.7779)">
                    <path d="M894.729,389.216L1041.29,606.311L895.291,734.903" style="fill:none;stroke:rgb(145,145,145);stroke-width:6.17px;"/>
                </g>
                <g transform="matrix(1,0,0,1,21.3596,-25.8563)">
                    <path d="M894.729,389.216L1062.8,762.221L895.291,734.903" style="fill:none;stroke:rgb(59,59,59);stroke-width:6.17px;"/>
                </g>
                <g transform="matrix(1,0,0,1,21.3596,-25.8563)">
                    <path d="M894.729,389.216L1062.32,412.951L895.291,734.903" style="fill:none;stroke:rgb(59,59,59);stroke-width:6.17px;"/>
                </g>
                <g transform="matrix(1,0,0,1,21.3596,-25.8563)">
                    <path d="M894.729,389.216L1062.55,584.086L895.291,734.903" style="fill:none;stroke:rgb(59,59,59);stroke-width:6.17px;"/>
                </g>
                <path d="M894.729,389.216L1084.43,736.431L895.291,734.903" style="fill:none;stroke:black;stroke-width:6.17px;"/>
                <path d="M894.729,389.216L1084.1,386.967L895.291,734.903" style="fill:none;stroke:black;stroke-width:6.17px;"/>
                <path d="M894.729,389.216L1084.14,558.472L895.291,734.903" style="fill:none;stroke:black;stroke-width:6.17px;"/>
            </g>
            <g transform="matrix(1.97355,0,0,1.97355,216.825,-84.1581)">
                <g>
                    <path d="M71.887,292.857L143.792,328.81L71.887,364.763C89.863,346.786 89.863,310.833 71.887,292.857Z"/>
                    <path d="M62.905,328.81L86.268,328.81" style="fill:none;stroke:black;stroke-width:23.97px;stroke-linecap:butt;stroke-linejoin:miter;"/>
                </g>
            </g>
        </g>
        <g transform="matrix(1,0,0,1,179.771,0)">
            <path d="M714.445,185.537L984.69,449.107L714.049,956.457" style="fill:none;stroke:black;stroke-width:3.75px;"/>
        </g>
        <g transform="matrix(1,0,0,1,179.771,0)">
            <path d="M714.49,851.575L984.69,449.557L714.783,290.646" style="fill:none;stroke:black;stroke-width:3.75px;"/>
        </g>
        <g transform="matrix(1,0,0,1,179.771,0)">
            <path d="M714.807,395.387L984.563,449.339L713.962,743.868" style="fill:none;stroke:black;stroke-width:3.75px;"/>
        </g>
        <g transform="matrix(1,0,0,1,179.771,0)">
            <path d="M714.499,956.906L984.974,554.781L714.445,184.188" style="fill:none;stroke:black;stroke-width:3.75px;"/>
        </g>
        <g transform="matrix(1,0,0,1,179.771,0)">
            <path d="M714.475,290.375L984.974,554.781L714.56,851.418" style="fill:none;stroke:black;stroke-width:3.75px;"/>
        </g>
        <g transform="matrix(1,0,0,1,179.771,0)">
            <path d="M714.862,743.868L984.974,554.781L714.358,395.387" style="fill:none;stroke:black;stroke-width:3.75px;"/>
        </g>
        <g transform="matrix(1,0,0,1,179.771,0)">
            <path d="M714.358,395.387L984.519,661.803L714.862,744.317" style="fill:none;stroke:black;stroke-width:3.75px;"/>
        </g>
        <g transform="matrix(1,0,0,1,179.771,0)">
            <path d="M714.11,851.868L984.519,661.803L714.333,290.197" style="fill:none;stroke:black;stroke-width:3.75px;"/>
        </g>
        <g transform="matrix(1,0,0,1,179.771,0)">
            <path d="M714.049,957.356L984.519,661.803L713.995,183.289" style="fill:none;stroke:black;stroke-width:3.75px;"/>
        </g>
        <g transform="matrix(1,0,0,1,179.771,0)">
            <path d="M1054.11,555.975L1147.93,555.975" style="fill:none;stroke:black;stroke-width:3.75px;"/>
        </g>
    </g>
</svg>
