<?xml version="1.0" encoding="UTF-8" standalone="no"?>
<!DOCTYPE svg PUBLIC "-//W3C//DTD SVG 1.1//EN" "http://www.w3.org/Graphics/SVG/1.1/DTD/svg11.dtd">
<svg width="100%" height="100%" viewBox="0 0 1080 1080" version="1.1" xmlns="http://www.w3.org/2000/svg" xmlns:xlink="http://www.w3.org/1999/xlink" xml:space="preserve" xmlns:serif="http://www.serif.com/" style="fill-rule:evenodd;clip-rule:evenodd;stroke-linecap:round;stroke-linejoin:round;stroke-miterlimit:1.5;">
    <g transform="matrix(1.35427,0,0,1.35427,-304.916,-102.919)">
        <g transform="matrix(0.738405,0,0,0.738405,223.306,89.6556)">
            <path d="M26,676L222,676C307,677 264,746 330,745C393.993,744.03 337,604 425,600C510.935,596.094 446,791 545,792C644,793 560,464 655,463C748.016,462.021 686,743 779,742C899.997,740.699 764,251 906,251L1059,251" style="fill:none;stroke:white;stroke-width:30px;stroke-dasharray:270,60,30,0;"/>
        </g>
        <g transform="matrix(0.738405,0,0,0.738405,223.306,89.6556)">
            <path d="M906,251L1059,251" style="fill:none;stroke:white;stroke-width:30px;"/>
        </g>
    </g>
</svg>
