<?xml version="1.0" encoding="UTF-8" standalone="no"?>
<!DOCTYPE svg PUBLIC "-//W3C//DTD SVG 1.1//EN" "http://www.w3.org/Graphics/SVG/1.1/DTD/svg11.dtd">
<svg width="100%" height="100%" viewBox="0 0 1080 1080" version="1.1" xmlns="http://www.w3.org/2000/svg" xmlns:xlink="http://www.w3.org/1999/xlink" xml:space="preserve" xmlns:serif="http://www.serif.com/" style="fill-rule:evenodd;clip-rule:evenodd;stroke-linejoin:round;stroke-miterlimit:2;">
    <g transform="matrix(1,0,0,1.02202,62.0965,-29.9849)">
        <path d="M201.724,378.174L201.724,737.236C201.724,744.261 207.553,749.964 214.733,749.964C221.912,749.964 227.741,744.261 227.741,737.236L227.741,378.174C227.741,371.15 221.912,365.446 214.733,365.446C207.553,365.446 201.724,371.15 201.724,378.174Z" style="fill:white;"/>
    </g>
    <g transform="matrix(1,0,0,0.843004,3.61408,69.8524)">
        <path d="M201.724,378.174L201.724,737.236C201.724,745.752 207.553,752.667 214.733,752.667C221.912,752.667 227.741,745.752 227.741,737.236L227.741,378.174C227.741,369.658 221.912,362.743 214.733,362.743C207.553,362.743 201.724,369.658 201.724,378.174Z" style="fill:white;"/>
    </g>
    <g transform="matrix(1,0,0,0.411631,-54.8683,310.431)">
        <path d="M201.724,378.174L201.724,737.236C201.724,754.678 207.553,768.838 214.733,768.838C221.912,768.838 227.741,754.678 227.741,737.236L227.741,378.174C227.741,360.733 221.912,346.572 214.733,346.572C207.553,346.572 201.724,360.733 201.724,378.174Z" style="fill:white;"/>
    </g>
    <g transform="matrix(1,0,0,0.270566,-113.351,389.104)">
        <path d="M201.724,378.174L201.724,737.236C201.724,763.771 207.553,785.315 214.733,785.315C221.912,785.315 227.741,763.771 227.741,737.236L227.741,378.174C227.741,351.639 221.912,330.095 214.733,330.095C207.553,330.095 201.724,351.639 201.724,378.174Z" style="fill:white;"/>
    </g>
    <g transform="matrix(1,0,0,1.50392,120.579,-298.742)">
        <path d="M201.724,378.174L201.724,737.236C201.724,742.01 207.553,745.885 214.733,745.885C221.912,745.885 227.741,742.01 227.741,737.236L227.741,378.174C227.741,373.4 221.912,369.525 214.733,369.525C207.553,369.525 201.724,373.4 201.724,378.174Z" style="fill:white;"/>
    </g>
    <g transform="matrix(1,0,0,1.12398,179.061,-86.849)">
        <path d="M201.724,378.174L201.724,737.236C201.724,743.623 207.553,748.809 214.733,748.809C221.912,748.809 227.741,743.623 227.741,737.236L227.741,378.174C227.741,371.787 221.912,366.601 214.733,366.601C207.553,366.601 201.724,371.787 201.724,378.174Z" style="fill:white;"/>
    </g>
    <g transform="matrix(1,0,0,1.77647,237.544,-450.747)">
        <path d="M201.724,378.174L201.724,737.236C201.724,741.277 207.553,744.558 214.733,744.558C221.912,744.558 227.741,741.277 227.741,737.236L227.741,378.174C227.741,374.133 221.912,370.852 214.733,370.852C207.553,370.852 201.724,374.133 201.724,378.174Z" style="fill:white;"/>
    </g>
    <g transform="matrix(1,0,0,1.60945,296.026,-357.601)">
        <path d="M201.724,378.174L201.724,737.236C201.724,741.697 207.553,745.318 214.733,745.318C221.912,745.318 227.741,741.697 227.741,737.236L227.741,378.174C227.741,373.714 221.912,370.092 214.733,370.092C207.553,370.092 201.724,373.714 201.724,378.174Z" style="fill:white;"/>
    </g>
    <g transform="matrix(1,0,0,1.12398,354.508,-86.849)">
        <path d="M201.724,378.174L201.724,737.236C201.724,743.623 207.553,748.809 214.733,748.809C221.912,748.809 227.741,743.623 227.741,737.236L227.741,378.174C227.741,371.787 221.912,366.601 214.733,366.601C207.553,366.601 201.724,371.787 201.724,378.174Z" style="fill:white;"/>
    </g>
    <g transform="matrix(1,0,0,1.4617,412.991,-275.198)">
        <path d="M201.724,378.174L201.724,737.236C201.724,742.148 207.553,746.135 214.733,746.135C221.912,746.135 227.741,742.148 227.741,737.236L227.741,378.174C227.741,373.263 221.912,369.275 214.733,369.275C207.553,369.275 201.724,373.263 201.724,378.174Z" style="fill:white;"/>
    </g>
    <g transform="matrix(1,0,0,1.60945,471.473,-357.601)">
        <path d="M201.724,378.174L201.724,737.236C201.724,741.697 207.553,745.318 214.733,745.318C221.912,745.318 227.741,741.697 227.741,737.236L227.741,378.174C227.741,373.714 221.912,370.092 214.733,370.092C207.553,370.092 201.724,373.714 201.724,378.174Z" style="fill:white;"/>
    </g>
    <g transform="matrix(1,0,0,0.76515,529.956,113.272)">
        <path d="M201.724,378.174L201.724,737.236C201.724,746.619 207.553,754.237 214.733,754.237C221.912,754.237 227.741,746.619 227.741,737.236L227.741,378.174C227.741,368.791 221.912,361.173 214.733,361.173C207.553,361.173 201.724,368.791 201.724,378.174Z" style="fill:white;"/>
    </g>
    <g transform="matrix(1,0,0,1.34561,588.438,-210.453)">
        <path d="M201.724,378.174L201.724,737.236C201.724,742.571 207.553,746.903 214.733,746.903C221.912,746.903 227.741,742.571 227.741,737.236L227.741,378.174C227.741,372.839 221.912,368.507 214.733,368.507C207.553,368.507 201.724,372.839 201.724,378.174Z" style="fill:white;"/>
    </g>
    <g transform="matrix(1,0,0,1.14509,646.92,-98.6208)">
        <path d="M201.724,378.174L201.724,737.236C201.724,743.506 207.553,748.596 214.733,748.596C221.912,748.596 227.741,743.506 227.741,737.236L227.741,378.174C227.741,371.905 221.912,366.814 214.733,366.814C207.553,366.814 201.724,371.905 201.724,378.174Z" style="fill:white;"/>
    </g>
    <g transform="matrix(1,0,0,0.427429,705.403,301.621)">
        <path d="M201.724,378.174L201.724,737.236C201.724,754.033 207.553,767.67 214.733,767.67C221.912,767.67 227.741,754.033 227.741,737.236L227.741,378.174C227.741,361.377 221.912,347.74 214.733,347.74C207.553,347.74 201.724,361.377 201.724,378.174Z" style="fill:white;"/>
    </g>
    <g transform="matrix(1,0,0,0.270566,763.885,389.104)">
        <path d="M201.724,378.174L201.724,737.236C201.724,763.771 207.553,785.315 214.733,785.315C221.912,785.315 227.741,763.771 227.741,737.236L227.741,378.174C227.741,351.639 221.912,330.095 214.733,330.095C207.553,330.095 201.724,351.639 201.724,378.174Z" style="fill:white;"/>
    </g>
    <path d="M63.236,553.123C92.739,535.999 139.91,508.531 189.033,491.788C220.055,481.214 251.84,474.798 280.048,479.07C296.323,481.535 313.497,490.926 331.147,503.176C360.465,523.524 390.533,551.898 418.628,575.6C438.657,592.496 457.816,607.074 475.054,615.57C488.909,622.398 501.889,625.43 513.459,624.187C528.868,622.532 542.177,612.842 553.111,596.899C565.865,578.301 575.805,550.441 585.108,522.552C593.533,497.295 601.407,472.028 611.464,455.427C615.519,448.735 618.991,443.102 624.55,442.56C630.848,441.945 637.034,446.129 643.978,451.674C653.926,459.617 664.254,471.039 675.043,483.835C696.095,508.801 718.602,538.755 742.194,561.23C759.682,577.89 777.954,590.483 796.477,595.57C825.715,603.601 861.988,601.944 898.733,595.293C951.16,585.805 1004.62,566.414 1038.02,554.259C1045.89,551.395 1049.95,542.681 1047.09,534.811C1044.22,526.941 1035.51,522.877 1027.64,525.741C995.424,537.464 943.895,556.279 893.329,565.431C861.412,571.207 829.91,573.282 804.514,566.306C790.256,562.39 776.588,552.081 763.127,539.257C740.296,517.507 718.616,488.432 698.244,464.271C683.369,446.631 669.009,431.509 655.54,422.553C643.853,414.78 632.397,411.302 621.604,412.355C607.886,413.693 595.513,423.188 585.508,439.702C574.512,457.853 565.531,485.333 556.32,512.949C547.986,537.934 539.509,563.074 528.083,579.735C522.888,587.31 517.539,593.226 510.217,594.013C503.611,594.723 496.381,592.247 488.47,588.349C473.063,580.755 456.098,567.505 438.196,552.403C409.396,528.107 378.505,499.104 348.45,478.244C326.518,463.022 304.817,452.128 284.593,449.065C251.972,444.124 215.118,450.835 179.243,463.063C128.02,480.522 78.765,509.021 48.002,526.877C40.759,531.081 38.292,540.374 42.496,547.617C46.7,554.86 55.993,557.328 63.236,553.123Z" style="fill:white;"/>
</svg>
