<?xml version="1.0" encoding="UTF-8" standalone="no"?>
<!DOCTYPE svg PUBLIC "-//W3C//DTD SVG 1.1//EN" "http://www.w3.org/Graphics/SVG/1.1/DTD/svg11.dtd">
<svg width="100%" height="100%" viewBox="0 0 1330 1331" version="1.1" xmlns="http://www.w3.org/2000/svg" xmlns:xlink="http://www.w3.org/1999/xlink" xml:space="preserve" xmlns:serif="http://www.serif.com/" style="fill-rule:evenodd;clip-rule:evenodd;stroke-linejoin:round;stroke-miterlimit:2;">
    <g transform="matrix(0.1,0,0,-0.1,-335.153,1398.69)">
        <path d="M9630,13975C9122,13937 8761,13880 8347,13775C6494,13303 4910,12023 4052,10305C3339,8875 3164,7247 3556,5695C3962,4093 4962,2691 6354,1775C7678,903 9260,539 10855,740C12523,951 14062,1806 15141,3120C15562,3633 15926,4246 16170,4855C16591,5907 16737,7046 16594,8175C16432,9464 15891,10678 15035,11673C14147,12706 12947,13449 11630,13780C10986,13942 10209,14018 9630,13975ZM9640,10450C11367,10370 12920,10003 14147,9384C14560,9176 14699,9079 14780,8941C15011,8547 14762,8057 14304,8005C14233,7997 14107,8014 14038,8040C14012,8050 13926,8094 13848,8138C13465,8353 13089,8519 12655,8666C11740,8977 10743,9154 9601,9211C9335,9224 8470,9218 8245,9201C7451,9142 6823,9039 6275,8878C6151,8841 6123,8836 6030,8836C5957,8836 5906,8841 5865,8854C5380,8999 5251,9608 5637,9931C5734,10012 5854,10056 6230,10150C6877,10310 7603,10411 8380,10449C8623,10461 9393,10461 9640,10450ZM9516,8155C10665,8080 11715,7840 12690,7428C13087,7260 13643,6965 13766,6857C13991,6659 13988,6287 13760,6088C13655,5996 13531,5954 13389,5962C13279,5969 13221,5990 13054,6090C12573,6378 11936,6640 11296,6816C9847,7212 8226,7243 6860,6900C6753,6873 6627,6839 6580,6825C6477,6794 6347,6783 6267,6799C6033,6848 5860,7063 5860,7305C5860,7438 5908,7557 6003,7657C6096,7756 6158,7784 6460,7865C7000,8011 7615,8112 8185,8150C8273,8156 8365,8162 8390,8163C8544,8174 9311,8168 9516,8155ZM9315,6000C10330,5957 11194,5771 12031,5415C12435,5242 12908,4984 12999,4885C13151,4720 13138,4462 12970,4307C12897,4239 12824,4208 12721,4202C12608,4195 12561,4210 12390,4310C11536,4807 10647,5072 9535,5162C9329,5179 8612,5178 8385,5162C7828,5120 7326,5047 6780,4929C6544,4877 6479,4878 6366,4933C6200,5016 6113,5182 6141,5364C6162,5502 6266,5635 6387,5680C6502,5723 7059,5833 7450,5890C8125,5988 8736,6024 9315,6000Z" style="fill:rgb(88,96,117);fill-rule:nonzero;"/>
    </g>
</svg>
