<?xml version="1.0" encoding="UTF-8" standalone="no"?>
<!DOCTYPE svg PUBLIC "-//W3C//DTD SVG 1.1//EN" "http://www.w3.org/Graphics/SVG/1.1/DTD/svg11.dtd">
<svg width="100%" height="100%" viewBox="0 0 1080 1080" version="1.1" xmlns="http://www.w3.org/2000/svg" xmlns:xlink="http://www.w3.org/1999/xlink" xml:space="preserve" xmlns:serif="http://www.serif.com/" style="fill-rule:evenodd;clip-rule:evenodd;stroke-linecap:round;stroke-linejoin:round;stroke-miterlimit:1.5;">
    <rect x="-12.474" y="-9.553" width="1128.5" height="1125.05" style="fill:rgb(27,34,62);"/>
    <g transform="matrix(1,0,0,1,3.1657,-46.9191)">
        <rect x="381.658" y="1052.84" width="20.289" height="20.289" style="fill:rgb(64,132,217);"/>
    </g>
    <g transform="matrix(1,0,0,1,166.631,-46.9191)">
        <rect x="381.658" y="1052.84" width="20.289" height="20.289" style="fill:rgb(115,41,138);"/>
    </g>
    <g transform="matrix(1,0,0,1,0,37.0519)">
        <path d="M118.954,9.31L49.991,9.31L49.991,77.351L1030.16,77.351L1030.16,73.181L118.954,73.181L118.954,9.31Z" style="fill:rgb(124,210,173);"/>
    </g>
    <g transform="matrix(4.06491,0,0,4.06491,-427.294,-95.2439)">
        <g>
            <g transform="matrix(1,0,0,1,140.503,47.092)">
                <text x="0px" y="0px" style="font-family:'Lato-Regular', 'Lato', sans-serif;font-size:12px;fill:white;">A</text>
            </g>
            <g transform="matrix(1,0,0,1,148.171,47.092)">
                <text x="0px" y="0px" style="font-family:'Lato-Regular', 'Lato', sans-serif;font-size:12px;fill:white;">v<tspan x="5.988px 12.276px 16.884px 22.968px " y="0px 0px 0px 0px ">erag</tspan>es</text>
            </g>
        </g>
    </g>
    <g transform="matrix(2.69905,0,0,2.69905,-97.1259,46.6341)">
        <g>
            <g transform="matrix(1,0,0,1,140.503,47.092)">
                <text x="0px" y="0px" style="font-family:'Lato-Regular', 'Lato', sans-serif;font-size:12px;fill:white;">W</text>
            </g>
            <g transform="matrix(1,0,0,1,152.539,47.092)">
                <text x="0px" y="0px" style="font-family:'Lato-Regular', 'Lato', sans-serif;font-size:12px;fill:white;">ords</text>
            </g>
        </g>
    </g>
    <g transform="matrix(2.70439,0,0,2.70439,92.851,46.0474)">
        <g>
            <g transform="matrix(1,0,0,1,140.503,47.092)">
                <text x="0px" y="0px" style="font-family:'Lato-Regular', 'Lato', sans-serif;font-size:12px;fill:white;">Char</text>
            </g>
            <g transform="matrix(1,0,0,1,166.087,47.092)">
                <text x="0px" y="0px" style="font-family:'Lato-Regular', 'Lato', sans-serif;font-size:12px;fill:white;">acters</text>
            </g>
        </g>
    </g>
    <g transform="matrix(2.48885,0,0,2.48885,-298.448,126.757)">
        <g>
            <g transform="matrix(1,0,0,1,140.503,47.092)">
                <text x="0px" y="0px" style="font-family:'Lato-Regular', 'Lato', sans-serif;font-size:12px;fill:white;">P</text>
            </g>
            <g transform="matrix(1,0,0,1,147.655,47.092)">
                <text x="0px" y="0px" style="font-family:'Lato-Regular', 'Lato', sans-serif;font-size:12px;fill:white;">er Message</text>
            </g>
        </g>
    </g>
    <g transform="matrix(4.67751,0,0,4.67751,-545.963,119.81)">
        <g>
            <g transform="matrix(1,0,0,1,140.503,47.092)">
                <text x="0px" y="0px" style="font-family:'Lato-Regular', 'Lato', sans-serif;font-size:6.888px;fill:white;">P</text>
            </g>
            <g transform="matrix(1,0,0,1,144.609,47.092)">
                <text x="0px" y="0px" style="font-family:'Lato-Regular', 'Lato', sans-serif;font-size:6.888px;fill:white;">er Da</text>
            </g>
            <g transform="matrix(1,0,0,1,160.893,47.092)">
                <text x="0px" y="0px" style="font-family:'Lato-Regular', 'Lato', sans-serif;font-size:6.888px;fill:white;">y</text>
            </g>
        </g>
    </g>
    <g transform="matrix(2.72214,0,0,2.72214,351.371,205.133)">
        <g>
            <g transform="matrix(1,0,0,1,140.503,47.092)">
                <text x="0px" y="0px" style="font-family:'Lato-Regular', 'Lato', sans-serif;font-size:12px;fill:white;">A</text>
            </g>
            <g transform="matrix(1,0,0,1,148.171,47.092)">
                <text x="0px" y="0px" style="font-family:'Lato-Regular', 'Lato', sans-serif;font-size:12px;fill:white;">v<tspan x="5.988px 12.276px 16.884px 22.968px " y="0px 0px 0px 0px ">erag</tspan>e Messages</text>
            </g>
        </g>
        <g>
            <g transform="matrix(1,0,0,1,168.085,59.092)">
                <text x="0px" y="0px" style="font-family:'Lato-Regular', 'Lato', sans-serif;font-size:12px;fill:white;">P</text>
            </g>
            <g transform="matrix(1,0,0,1,175.237,59.092)">
                <text x="0px" y="0px" style="font-family:'Lato-Regular', 'Lato', sans-serif;font-size:12px;fill:white;">er Da</text>
            </g>
            <g transform="matrix(1,0,0,1,203.605,59.092)">
                <text x="0px" y="0px" style="font-family:'Lato-Regular', 'Lato', sans-serif;font-size:12px;fill:white;">y</text>
            </g>
        </g>
    </g>
    <g transform="matrix(1.02826,0,0,0.733674,-19.2096,72.8934)">
        <rect x="690.289" y="96.448" width="3.569" height="339.222" style="fill:rgb(124,210,173);"/>
    </g>
    <g transform="matrix(6.65926,0,0,6.65926,800.046,258.428)">
        <text x="0px" y="0px" style="font-family:'Lato-Regular', 'Lato', sans-serif;font-size:12px;fill:white;">455</text>
    </g>
    <g transform="matrix(3.40061,0,0,3.40061,520.178,251.073)">
        <text x="0px" y="0px" style="font-family:'Lato-Regular', 'Lato', sans-serif;font-size:12px;fill:white;">28</text>
    </g>
    <g transform="matrix(3.39189,0,0,3.39189,484.878,342.989)">
        <text x="0px" y="0px" style="font-family:'Lato-Regular', 'Lato', sans-serif;font-size:12px;fill:white;">12905</text>
    </g>
    <g transform="matrix(2.41559,0,0,2.41559,31.6455,367.548)">
        <g>
            <g transform="matrix(1,0,0,1,140.503,47.092)">
                <text x="0px" y="0px" style="font-family:'Lato-Regular', 'Lato', sans-serif;font-size:12px;fill:white;">A</text>
            </g>
            <g transform="matrix(1,0,0,1,148.171,47.092)">
                <text x="0px" y="0px" style="font-family:'Lato-Regular', 'Lato', sans-serif;font-size:12px;fill:white;">v<tspan x="5.988px 12.276px 16.884px 22.968px " y="0px 0px 0px 0px ">erag</tspan>e Messages P</text>
            </g>
            <g transform="matrix(1,0,0,1,246.799,47.092)">
                <text x="0px" y="0px" style="font-family:'Lato-Regular', 'Lato', sans-serif;font-size:12px;fill:white;">er Hour</text>
            </g>
        </g>
    </g>
    <g transform="matrix(3.15264,0,0,3.15264,37.4024,537.087)">
        <text x="0px" y="0px" style="font-family:'Lato-Regular', 'Lato', sans-serif;font-size:12px;fill:white;">20</text>
    </g>
    <g transform="matrix(3.15264,0,0,3.15264,37.4024,641.052)">
        <text x="0px" y="0px" style="font-family:'Lato-Regular', 'Lato', sans-serif;font-size:12px;fill:white;">15</text>
    </g>
    <g transform="matrix(3.15264,0,0,3.15264,37.4024,747.534)">
        <text x="0px" y="0px" style="font-family:'Lato-Regular', 'Lato', sans-serif;font-size:12px;fill:white;">10</text>
    </g>
    <g transform="matrix(3.15264,0,0,3.15264,61.8644,852.938)">
        <text x="0px" y="0px" style="font-family:'Lato-Regular', 'Lato', sans-serif;font-size:12px;fill:white;">5</text>
    </g>
    <g transform="matrix(3.15264,0,0,3.15264,62.2244,959.061)">
        <text x="0px" y="0px" style="font-family:'Lato-Regular', 'Lato', sans-serif;font-size:12px;fill:white;">0</text>
    </g>
    <g transform="matrix(2.18755,0,0,2.18755,78.9163,977.572)">
        <text x="0px" y="0px" style="font-family:'Lato-Regular', 'Lato', sans-serif;font-size:12px;fill:white;">00:00</text>
    </g>
    <g transform="matrix(2.18755,0,0,2.18755,196.55,977.572)">
        <text x="0px" y="0px" style="font-family:'Lato-Regular', 'Lato', sans-serif;font-size:12px;fill:white;">03:00</text>
    </g>
    <g transform="matrix(2.18755,0,0,2.18755,314.185,977.572)">
        <text x="0px" y="0px" style="font-family:'Lato-Regular', 'Lato', sans-serif;font-size:12px;fill:white;">06:00</text>
    </g>
    <g transform="matrix(2.18755,0,0,2.18755,432.539,977.572)">
        <text x="0px" y="0px" style="font-family:'Lato-Regular', 'Lato', sans-serif;font-size:12px;fill:white;">09:00</text>
    </g>
    <g transform="matrix(2.18755,0,0,2.18755,551.612,977.572)">
        <text x="0px" y="0px" style="font-family:'Lato-Regular', 'Lato', sans-serif;font-size:12px;fill:white;">12:00</text>
    </g>
    <g transform="matrix(2.18755,0,0,2.18755,670.686,977.572)">
        <text x="0px" y="0px" style="font-family:'Lato-Regular', 'Lato', sans-serif;font-size:12px;fill:white;">15:00</text>
    </g>
    <g transform="matrix(2.18755,0,0,2.18755,787.241,977.572)">
        <text x="0px" y="0px" style="font-family:'Lato-Regular', 'Lato', sans-serif;font-size:12px;fill:white;">18:00</text>
    </g>
    <g transform="matrix(2.18755,0,0,2.18755,904.156,977.572)">
        <text x="0px" y="0px" style="font-family:'Lato-Regular', 'Lato', sans-serif;font-size:12px;fill:white;">21:00</text>
    </g>
    <g transform="matrix(2.0248,0,0,2.0248,411.751,1024.63)">
        <text x="0px" y="0px" style="font-family:'Lato-Regular', 'Lato', sans-serif;font-size:12px;fill:rgb(64,132,217);">Adam</text>
    </g>
    <g transform="matrix(2.0248,0,0,2.0248,291.877,929.281)">
        <g>
            <g transform="matrix(1,0,0,1,140.503,47.092)">
                <text x="0px" y="0px" style="font-family:'Lato-Regular', 'Lato', sans-serif;font-size:12px;fill:rgb(115,41,138);">Samm</text>
            </g>
            <g transform="matrix(1,0,0,1,172.459,47.092)">
                <text x="0px" y="0px" style="font-family:'Lato-Regular', 'Lato', sans-serif;font-size:12px;fill:rgb(115,41,138);">y</text>
            </g>
        </g>
    </g>
    <g transform="matrix(1,0,0,1,0,-47.2069)">
        <path d="M91.827,572.934L91.827,992.747L1035.09,992.747" style="fill:none;stroke:rgb(118,118,118);stroke-width:3.47px;"/>
    </g>
    <g transform="matrix(1,0,0,1,-0.181063,-47.7501)">
        <rect x="93.933" y="630.483" width="17.425" height="362.55" style="fill:rgb(65,131,215);"/>
    </g>
    <g transform="matrix(1,0,0,0.361241,78.4207,586.559)">
        <rect x="93.933" y="630.483" width="17.425" height="362.55" style="fill:rgb(65,131,215);"/>
    </g>
    <g transform="matrix(1,0,0,1.12248,39.1084,-169.377)">
        <rect x="93.933" y="630.483" width="17.425" height="362.55" style="fill:rgb(65,131,215);"/>
    </g>
    <g transform="matrix(1,0,0,0.353388,117.321,594.357)">
        <rect x="93.933" y="630.483" width="17.425" height="362.55" style="fill:rgb(65,131,215);"/>
    </g>
    <g transform="matrix(1,0,0,0.0292643,157.105,916.223)">
        <rect x="93.933" y="630.483" width="17.425" height="362.55" style="fill:rgb(65,131,215);"/>
    </g>
    <g transform="matrix(1,0,0,0.0511635,196.448,894.476)">
        <rect x="93.933" y="630.483" width="17.425" height="362.55" style="fill:rgb(65,131,215);"/>
    </g>
    <g transform="matrix(1,0,0,0.164342,235.937,782.087)">
        <rect x="93.933" y="630.483" width="17.425" height="362.55" style="fill:rgb(65,131,215);"/>
    </g>
    <g transform="matrix(1,0,0,0.0325589,274.837,912.951)">
        <rect x="93.933" y="630.483" width="17.425" height="362.55" style="fill:rgb(65,131,215);"/>
    </g>
    <g transform="matrix(1,0,0,0.0837216,314.184,862.145)">
        <rect x="93.933" y="630.483" width="17.425" height="362.55" style="fill:rgb(65,131,215);"/>
    </g>
    <g transform="matrix(1,0,0,0.136435,354.093,809.799)">
        <rect x="93.933" y="630.483" width="17.425" height="362.55" style="fill:rgb(65,131,215);"/>
    </g>
    <g transform="matrix(1,0,0,0.365892,392.877,581.94)">
        <rect x="93.933" y="630.483" width="17.425" height="362.55" style="fill:rgb(65,131,215);"/>
    </g>
    <g transform="matrix(1,0,0,0.75969,432.341,190.886)">
        <rect x="93.933" y="630.483" width="17.425" height="362.55" style="fill:rgb(65,131,215);"/>
    </g>
    <g transform="matrix(1,0,0,0.913178,471.757,38.4666)">
        <rect x="93.933" y="630.483" width="17.425" height="362.55" style="fill:rgb(65,131,215);"/>
    </g>
    <g transform="matrix(1,0,0,0.896124,510.805,55.4021)">
        <rect x="93.933" y="630.483" width="17.425" height="362.55" style="fill:rgb(65,131,215);"/>
    </g>
    <g transform="matrix(1,0,0,0.906977,550.405,44.625)">
        <rect x="93.933" y="630.483" width="17.425" height="362.55" style="fill:rgb(65,131,215);"/>
    </g>
    <g transform="matrix(1,0,0,0.657365,589.452,292.498)">
        <rect x="93.933" y="630.483" width="17.425" height="362.55" style="fill:rgb(65,131,215);"/>
    </g>
    <g transform="matrix(1,0,0,0.627907,628.316,321.75)">
        <rect x="93.933" y="630.483" width="17.425" height="362.55" style="fill:rgb(65,131,215);"/>
    </g>
    <g transform="matrix(1,0,0,0.631008,668.1,318.671)">
        <rect x="93.933" y="630.483" width="17.425" height="362.55" style="fill:rgb(65,131,215);"/>
    </g>
    <g transform="matrix(1,0,0,0.683721,707.332,266.325)">
        <rect x="93.933" y="630.483" width="17.425" height="362.55" style="fill:rgb(65,131,215);"/>
    </g>
    <g transform="matrix(1,0,0,0.665117,747.116,284.8)">
        <rect x="93.933" y="630.483" width="17.425" height="362.55" style="fill:rgb(65,131,215);"/>
    </g>
    <g transform="matrix(1,0,0,0.694574,786.348,255.548)">
        <rect x="93.933" y="630.483" width="17.425" height="362.55" style="fill:rgb(65,131,215);"/>
    </g>
    <g transform="matrix(1,0,0,0.691473,825.396,258.627)">
        <rect x="93.933" y="630.483" width="17.425" height="362.55" style="fill:rgb(65,131,215);"/>
    </g>
    <g transform="matrix(1,0,0,0.702326,864.627,247.85)">
        <rect x="93.933" y="630.483" width="17.425" height="362.55" style="fill:rgb(65,131,215);"/>
    </g>
    <g transform="matrix(1,0,0,0.905427,904.043,46.1645)">
        <rect x="93.933" y="630.483" width="17.425" height="362.55" style="fill:rgb(65,131,215);"/>
    </g>
    <g transform="matrix(1,0,0,0.852713,19.1112,98.4917)">
        <rect x="93.933" y="630.483" width="17.425" height="362.55" style="fill:rgb(119,38,141);"/>
    </g>
    <g transform="matrix(1,0,0,0.852713,19.1112,98.4917)">
        <rect x="93.933" y="630.483" width="17.425" height="362.55" style="fill:rgb(119,38,141);"/>
    </g>
    <g transform="matrix(1,0,0,0.96186,58.9415,-9.89507)">
        <rect x="93.933" y="630.483" width="17.425" height="362.55" style="fill:rgb(119,38,141);"/>
    </g>
    <g transform="matrix(1,0,0,0.370481,98.1718,577.364)">
        <rect x="93.933" y="630.483" width="17.425" height="362.55" style="fill:rgb(119,38,141);"/>
    </g>
    <g transform="matrix(1,0,0,0.389334,137.025,558.643)">
        <rect x="93.933" y="630.483" width="17.425" height="362.55" style="fill:rgb(119,38,141);"/>
    </g>
    <g transform="matrix(1,0,0,0.124032,176.406,822.097)">
        <rect x="93.933" y="630.483" width="17.425" height="362.55" style="fill:rgb(119,38,141);"/>
    </g>
    <g transform="matrix(1,0,0,0.125582,216.089,820.557)">
        <rect x="93.933" y="630.483" width="17.425" height="362.55" style="fill:rgb(119,38,141);"/>
    </g>
    <g transform="matrix(1,0,0,0.286822,255.621,660.44)">
        <rect x="93.933" y="630.483" width="17.425" height="362.55" style="fill:rgb(119,38,141);"/>
    </g>
    <g transform="matrix(1,0,0,0.0790706,294.927,866.745)">
        <rect x="93.933" y="630.483" width="17.425" height="362.55" style="fill:rgb(119,38,141);"/>
    </g>
    <g transform="matrix(1,0,0,0.133334,334.308,812.859)">
        <rect x="93.933" y="630.483" width="17.425" height="362.55" style="fill:rgb(119,38,141);"/>
    </g>
    <g transform="matrix(1,0,0,0.179846,373.161,766.672)">
        <rect x="93.933" y="630.483" width="17.425" height="362.55" style="fill:rgb(119,38,141);"/>
    </g>
    <g transform="matrix(1,0,0,0.35814,412.467,589.619)">
        <rect x="93.933" y="630.483" width="17.425" height="362.55" style="fill:rgb(119,38,141);"/>
    </g>
    <g transform="matrix(1,0,0,0.675969,451.546,274.004)">
        <rect x="93.933" y="630.483" width="17.425" height="362.55" style="fill:rgb(119,38,141);"/>
    </g>
    <g transform="matrix(1,0,0,0.827907,491.078,123.125)">
        <rect x="93.933" y="630.483" width="17.425" height="362.55" style="fill:rgb(119,38,141);"/>
    </g>
    <g transform="matrix(1,0,0,0.789147,529.931,161.615)">
        <rect x="93.933" y="630.483" width="17.425" height="362.55" style="fill:rgb(119,38,141);"/>
    </g>
    <g transform="matrix(1,0,0,0.812403,569.84,138.521)">
        <rect x="93.933" y="630.483" width="17.425" height="362.55" style="fill:rgb(119,38,141);"/>
    </g>
    <g transform="matrix(1,0,0,0.575194,609.372,374.077)">
        <rect x="93.933" y="630.483" width="17.425" height="362.55" style="fill:rgb(119,38,141);"/>
    </g>
    <g transform="matrix(1,0,0,0.572093,648.527,377.157)">
        <rect x="93.933" y="630.483" width="17.425" height="362.55" style="fill:rgb(119,38,141);"/>
    </g>
    <g transform="matrix(1,0,0,0.542636,688.059,406.409)">
        <rect x="93.933" y="630.483" width="17.425" height="362.55" style="fill:rgb(119,38,141);"/>
    </g>
    <g transform="matrix(1,0,0,0.663566,727.139,286.321)">
        <rect x="93.933" y="630.483" width="17.425" height="362.55" style="fill:rgb(119,38,141);"/>
    </g>
    <g transform="matrix(1,0,0,0.651163,766.595,298.638)">
        <rect x="93.933" y="630.483" width="17.425" height="362.55" style="fill:rgb(119,38,141);"/>
    </g>
    <g transform="matrix(1,0,0,0.67907,805.825,270.925)">
        <rect x="93.933" y="630.483" width="17.425" height="362.55" style="fill:rgb(119,38,141);"/>
    </g>
    <g transform="matrix(1,0,0,0.609303,845.207,340.207)">
        <rect x="93.933" y="630.483" width="17.425" height="362.55" style="fill:rgb(119,38,141);"/>
    </g>
    <g transform="matrix(1,0,0,0.716279,884.739,233.975)">
        <rect x="93.933" y="630.483" width="17.425" height="362.55" style="fill:rgb(119,38,141);"/>
    </g>
    <g transform="matrix(1,0,0,0.84031,923.969,110.808)">
        <rect x="93.933" y="630.483" width="17.425" height="362.55" style="fill:rgb(119,38,141);"/>
    </g>
    <g transform="matrix(4.06491,0,0,4.06491,289.259,342.591)">
        <text x="0px" y="0px" style="font-family:'Lato-Regular', 'Lato', sans-serif;font-size:9.84px;fill:white;">2630</text>
    </g>
    <g transform="matrix(3.37169,0,0,3.37169,307.255,251.01)">
        <text x="0px" y="0px" style="font-family:'Lato-Regular', 'Lato', sans-serif;font-size:12px;fill:white;">5.8</text>
    </g>
    <rect x="250.294" y="201.599" width="393.025" height="164.675" style="fill:none;stroke:white;stroke-width:3.47px;"/>
    <g transform="matrix(0.500081,0,0,0.489365,125.127,102.943)">
        <rect x="250.294" y="201.599" width="393.025" height="164.675" style="fill:none;stroke:white;stroke-width:7.02px;"/>
    </g>
    <g transform="matrix(0.500081,0,0,0.50848,125.127,180.031)">
        <rect x="250.294" y="201.599" width="393.025" height="164.675" style="fill:none;stroke:white;stroke-width:6.89px;"/>
    </g>
    <g transform="matrix(0.500081,0,0,0.489365,321.607,102.943)">
        <rect x="250.294" y="201.599" width="393.025" height="164.675" style="fill:none;stroke:white;stroke-width:7.02px;"/>
    </g>
    <g transform="matrix(0.500081,0,0,0.50848,321.607,180.031)">
        <rect x="250.294" y="201.599" width="393.025" height="164.675" style="fill:none;stroke:white;stroke-width:6.89px;"/>
    </g>
</svg>
